<?xml version="1.0" encoding="UTF-8"?>
<svg id="Navbar" xmlns="http://www.w3.org/2000/svg" version="1.1" xmlns:xlink="http://www.w3.org/1999/xlink" viewBox="0 0 2244.25 300">
  <!-- Generator: Adobe Illustrator 29.7.1, SVG Export Plug-In . SVG Version: 2.1.1 Build 8)  -->
  <defs>
    <style>
      .st0 {
        fill: #fff;
      }

      .st1 {
        fill: #f6e9cf;
      }

      .st2 {
        fill: #231f20;
      }

      .st3 {
        fill: url(#linear-gradient);
      }
    </style>
    <linearGradient id="linear-gradient" x1="-41.6" y1="-434.25" x2="340.4" y2="-817.45" gradientTransform="translate(0 -476) scale(1 -1)" gradientUnits="userSpaceOnUse">
      <stop offset="0" stop-color="#ffca06"/>
      <stop offset=".9" stop-color="#f47a20"/>
    </linearGradient>
  </defs>
  <g>
    <rect class="st3" y=".45" width="300" height="300" rx="35" ry="35"/>
    <g id="csd">
      <g id="d">
        <path class="st0" d="M225.8,125.15v62.2c0,15.5-12.3,27.5-29.1,27.5s-28.5-11.5-28.5-27.5v-33.3h43.7v-28.8h-74.4v62.2c0,1.4,0,2.7.1,4.1h-51.6c1.2-13.8.6-27.7-2-41.3-3.4-17.7-7.5-39.1-25-51-4.8-3.2-10.2-5.5-15.9-6.7l.4,83.8c.4,7.5,2.2,22.3,12.1,36.6,3.9,5.7,8.5,12.2,18.6,18,7.6,4.3,22.1,5.8,25.4,5.9,16.1.1,39.4.8,69.5.2,8.6,4.1,18.5,6.4,29.2,6.4,34.5,0,58.5-23.4,58.5-55.9v-43.9l-31-18.3h0v-.2h0Z"/>
        <path class="st0" d="M158,71.95c5-8.5,5.3-17.1,5-21.4l-62.5,1.2c-3.9.5-18.2,2.9-29.4,15.5-8.7,9.9-10.8,20.6-11.3,25l62.9-.7c2,0,24.5-1.3,35.2-19.7h0s.1.1.1.1Z"/>
        <path class="st2" d="M121.8,181.05c-1.4,3-1.8,6.4-1.2,10.2v.2h2.2c0-.2,0-.4-.1-.6-.9-4.7,1-8.6,1.4-9.5,2.6-5.1,7.2-7.1,8.8-7.7,1.5-.6,3-1,4.5-1.1v-2.1c-1.8.1-3.7.6-5.4,1.2-1.4.6-7.3,3-10.3,9.4h.1,0Z"/>
        <path class="st2" d="M193.7,169.85c-.3-.5-.9-.7-1.5-.5s-.5.4-.5.6c-2.1,5.7-5.9,8.6-11.2,8.5.4-1.7.7-3.5.8-5.3v-.7c0-.9.1-1.8.1-2.7v-3.4c0-.9-.2-1.8-.4-2.8,0-.2,0-.4-.1-.6,0-.4-.1-.8-.3-1.1,0-.2-.1-.4-.1-.5,0-.2-.1-.4-.2-.5,0-.4-.2-.7-.3-1.1-.1-.3-.3-.6-.4-.9-.3-.7-.6-1.5-1-2.1-.3-.5-.5-.9-.8-1.4-.2-.3-.4-.6-.6-.9s-.2-.3-.3-.4c-2.7-3.1-5.3-5.4-7.6-6.7-2.7-1.6-5.6-3.1-8.6-4.3-1.7-.7-3.4-1.4-5.3-2.1-1.8-.6-3.8-1.3-5.7-2-3.8-1.2-7.4-3.2-10.6-5.6-1.5-1.2-2.6-2.7-3.4-4.4-.8-1.7-1.1-3.6-1.1-5.4,0-1.9.4-3.8,1-5.6.6-1.7,1.5-3.3,2.6-4.8,2.2-2.9,4.5-4.9,7.1-6.2,2.5-1.2,4.6-1.9,6.2-2.1.4-.1.9-.1,1.3-.2h1.1c4,0,7.1,1.2,9.1,3.6,2.8,3.5,3.5,9.9,2.3,17h2.1c1.3-7.7.5-14.3-2.8-18.3-2.5-3-6.1-4.5-10.8-4.5h-2.7c-1.8,0-4.2.7-7.2,1.8-3,1.2-5.9,3.4-8.7,6.6-1.4,1.7-2.5,3.6-3.4,5.6-.9,2.2-1.5,4.4-1.7,6.8-.2,2.6.1,5.1,1,7.5,1,2.4,2.5,4.5,4.4,6.3,3.9,3.3,7.8,5.8,12,7.3.7.3,1.5.6,2.2.9,1.2.5,2.3.9,3.4,1.4,1.8.7,3.4,1.5,5,2.2,2.6,1.2,5.2,2.5,7.6,4,2.1,1.2,4.1,2.9,6.1,5.1l.3.3c.2.2.3.4.4.5l.6,1c.3.4.5.9.7,1.3.1.3.2.5.4.8.6,1.6,1.1,3.3,1.3,5.1,0,.5.1,1,.2,1.5s0,1,0,1.5v3c0,1.8-.2,3.6-.6,5.3-1.1-.2-2.3-.4-3.5-.7s-2.3-.5-3.5-.8v2.2c1,.2,2.1.5,3.2.7,1.1.2,2.2.4,3.3.6-.5,1.8-1.2,3.6-2,5.3-.7,1.6-1.7,3.1-2.7,4.5-.5.7-1,1.4-1.5,1.8.2,1.2.4,2.4.7,3.6.1.4.3.8.4,1.2,1.3-1.2,2.6-2.6,3.8-4,2.9-3.6,5-7.7,6.4-12.1,6.6.4,11.3-3,13.9-10v-.8h0v.3l.1-.2h0Z"/>
      </g>
    </g>
  </g>
  <g>
    <path class="st1" d="M476.44,155.78v73.56c0,46.96-24.77,70.37-74.32,70.21-51.22,0-76.9-27.2-76.9-81.76V81.16C325.22,26.75,350.91-.45,402.12-.45s74.32,21.28,74.32,70.67v65.65h-64.74v-71.58c0-8.36-3.19-12.46-9.57-12.46s-9.57,4.1-9.57,12.46v170.21c0,8.36,3.34,12.46,9.88,12.46s9.27-4.1,9.27-12.46v-78.72h64.74Z"/>
    <path class="st1" d="M570.04,122.5l2.89-33.59,9.88-86.47h69.76l-52.58,221.58v72.49h-65.35v-72.19L481.74,2.44h71.28l10.49,86.47,2.58,33.59h3.95Z"/>
    <path class="st1" d="M779.44,146.21c22.19,6.23,33.28,21.58,33.28,46.35v47.26c0,17.48-5.62,31.16-16.87,41.34-11.4,10.18-27.66,15.35-48.78,15.35h-86.47V2.44h89.51c18.24,0,32.83,4.41,43.92,13.07,11.09,8.66,16.56,21.43,16.56,37.99v44.98c0,24.32-10.33,39.67-31.16,45.9v1.82ZM725.95,53.81v69.6h8.97c7.29,0,10.94-4.1,10.94-12.16v-44.68c0-8.51-3.8-12.77-11.25-12.77h-8.66ZM725.95,168.24v76.9h7.75c9.12,0,13.68-5.02,13.68-15.2v-46.66c0-10.03-4.41-15.05-13.37-15.05h-8.05Z"/>
    <path class="st1" d="M892.65,241.49h57.45v55.01h-122.8V2.44h121.88v55.01h-56.53v62.61h53.49v51.98h-53.49v69.45Z"/>
    <path class="st1" d="M1122.27,296.51h-67.63l-9.27-98.02h-13.68v98.02h-65.35V2.44h83.59c45.14,0,67.93,23.25,67.93,64.74v57.14c0,18.39-4.71,33.28-14.29,44.53l18.69,127.66ZM1031.69,148.94h5.47c9.12,0,13.68-6.84,13.83-20.52v-53.19c0-11.85-4.56-17.78-13.83-17.78h-5.47v91.49Z"/>
  </g>
  <g>
    <path class="st1" d="M1418.14,3.93c45.13,0,71.46,23.77,71.46,71.46v149.68c0,23.02-6.32,40.32-19.11,52.2-12.79,11.88-30.24,17.75-52.35,17.75h-78.53V3.93h78.53ZM1423.41,71.32c0-8.58-3.61-12.94-10.83-12.94h-8.27v182.18h7.97c7.37-.15,11.13-4.51,11.13-13.09V71.32Z"/>
    <path class="st1" d="M1507.18,3.93h64.69v291.09h-64.69V3.93Z"/>
    <path class="st1" d="M1678.67,266.74c-3.31,11.28-7.97,19.41-13.99,24.07-6.02,4.82-14.74,7.22-26.33,7.22-15.04,0-27.08-5.57-35.95-16.7-8.88-10.98-13.39-27.53-13.39-49.49V81.85c0-54.91,25.57-80.78,77.32-80.78,47.39,0,72.81,22.11,72.81,64.09v58.22h-65.44v-58.22c0-8.27-3.31-12.34-9.78-12.34s-9.48,4.06-9.63,12.34v170.14c0,7.97,3.46,12.03,10.23,12.03s10.53-4.21,10.53-12.64v-55.81h-9.63v-41.37h73.71v157.51h-51.45l-5.57-28.28h-3.46Z"/>
    <path class="st1" d="M1756.88,3.93h64.69v291.09h-64.69V3.93Z"/>
    <path class="st1" d="M1970.04,3.93v54.16h-36.11v236.94h-64.69V58.38h-37.01V3.93h137.8Z"/>
    <path class="st1" d="M2056.68,295.02l-3.01-52.95-25.57-.3-3.16,53.25h-66.79L1988.98,3.93h105.31l29.94,291.09h-67.55ZM2031.4,190.32h19.11l-5.27-93.72-2.11-34.75h-4.06l-2.11,34.75-5.57,93.72Z"/>
    <path class="st1" d="M2196.57,240.56h47.69v54.46h-112.37V3.93h64.69v236.64Z"/>
  </g>
  <g>
    <path class="st1" d="M1204.93,240.76v24.58s-15.19,0-15.19,0c-2.84,0-4.29,1.28-4.29,3.77s1.33,3.65,3.94,3.71h14.09c2.61,0,4.52-1.33,5.62-3.94l2.84-11.54c1.57-5.97,4.06-10.44,7.48-13.51,3.42-3.02,8.52-4.52,15.42-4.52h18.79c8.47,0,15.07,2.55,19.77,7.71,4.7,5.16,7.07,12.35,7.07,21.63,0,19.02-8.06,28.87-22.84,28.87h-19.95s0-24.93,0-24.93h18.44c2.55,0,4.35-1.39,4.35-3.94,0-2.26-1.62-3.83-4-3.83h-17.57c-2.84,0-4.87,1.62-5.97,4.87l-2.26,9.16c-1.33,6.73-3.94,11.6-7.71,14.67-3.77,3.07-9.34,4.58-16.58,4.58h-15.36c-7.77,0-13.92-2.49-18.44-7.48-4.46-4.99-6.72-12.23-6.72-21.74,0-8.93,1.97-15.83,5.91-20.76,4-4.93,9.51-7.36,16.52-7.36h16.64Z"/>
    <path class="st1" d="M1248.42,208.23h30.73s0,24.93,0,24.93h-112.19s0-32.41,0-32.41c0-8.17,2.38-14.5,7.07-18.96,4.75-4.46,11.36-6.67,19.89-6.67h26.21c8.41,0,15.19,2.32,20.41,6.9,5.28,4.64,7.88,10.9,7.88,18.73v7.48ZM1227.49,205.85c0-3.42-2.2-5.1-6.67-5.1h-26.32c-4.35,0-6.55,1.68-6.55,5.1v2.38h39.54v-2.38Z"/>
    <path class="st1" d="M1279.15,139.17l-20.41,1.16-.11,9.86,20.52,1.22v25.74s-112.19-11.89-112.19-11.89v-40.59s112.19-11.54,112.19-11.54v26.03ZM1238.8,148.91v-7.36s-36.12,2.03-36.12,2.03l-13.39.81v1.57s13.39.81,13.39.81l36.12,2.15Z"/>
    <path class="st1" d="M1225.46,54.4h28.06c17.92,0,26.84,9.45,26.79,28.35,0,19.54-10.38,29.34-31.19,29.34h-52.12c-20.76,0-31.14-9.8-31.14-29.34,0-18.84,8.12-28.35,26.96-28.35h25.05s0,24.7,0,24.7h-27.31c-3.19,0-4.75,1.22-4.75,3.65s1.57,3.65,4.75,3.65h64.94c3.19,0,4.75-1.28,4.75-3.77,0-2.38-1.57-3.54-4.75-3.54h-30.03s0-24.7,0-24.7Z"/>
    <path class="st1" d="M1258.16,22.91V.99s20.99,0,20.99,0v46.85s-112.19,0-112.19,0V1.34s20.99,0,20.99,0v21.57h23.89V2.5s19.83,0,19.83,0v20.41h26.5Z"/>
  </g>
</svg>