<?xml version="1.0" encoding="UTF-8"?>
<svg id="Layer_1" xmlns="http://www.w3.org/2000/svg" version="1.1" xmlns:xlink="http://www.w3.org/1999/xlink" viewBox="0 0 1080 1080">
  <!-- Generator: Adobe Illustrator 29.7.1, SVG Export Plug-In . SVG Version: 2.1.1 Build 8)  -->
  <defs>
    <style>
      .st0 {
        fill: url(#linear-gradient2);
      }

      .st1 {
        fill: url(#linear-gradient1);
      }

      .st2 {
        fill: #f6e9cf;
      }

      .st3 {
        fill: url(#linear-gradient3);
      }

      .st4 {
        display: none;
      }

      .st5 {
        fill: url(#linear-gradient);
      }

      @keyframes fadeInScale {
        0% { opacity: 0; transform: scale(0.5) translateY(20px); }
        100% { opacity: 1; transform: scale(1) translateY(0); }
      }
      @keyframes fadeInUp {
        0% { opacity: 0; transform: translateY(30px); }
        100% { opacity: 1; transform: translateY(0); }
      }
      .petal {
        opacity: 0;
        transform-origin: center;
        transform-box: fill-box;
        animation: fadeInScale 0.6s cubic-bezier(0.2, 0.8, 0.2, 1) forwards;
      }
      .petal-1 { animation-delay: 0.1s; }
      .petal-2 { animation-delay: 0.3s; }
      .petal-3 { animation-delay: 0.5s; }
      .petal-4 { animation-delay: 0.7s; }
      
      .title-text {
        opacity: 0;
        animation: fadeInUp 0.8s ease-out forwards;
        animation-delay: 1.1s;
      }
    </style>
    <linearGradient id="linear-gradient" x1="611.3" y1="602.2" x2="438.2" y2="641.9" gradientTransform="translate(0 -168)" gradientUnits="userSpaceOnUse">
      <stop offset="0" stop-color="#fee531"/>
      <stop offset="0" stop-color="#fdde30"/>
      <stop offset=".3" stop-color="#fbcb2f"/>
      <stop offset=".4" stop-color="#f8ad2d"/>
      <stop offset=".6" stop-color="#f5832b"/>
      <stop offset=".8" stop-color="#f04d27"/>
      <stop offset="1" stop-color="#ec1e25"/>
    </linearGradient>
    <linearGradient id="linear-gradient1" x1="600.2" y1="527" x2="511.1" y2="726.5" gradientTransform="translate(0 -168)" gradientUnits="userSpaceOnUse">
      <stop offset=".2" stop-color="#fee531"/>
      <stop offset=".3" stop-color="#fabc2e"/>
      <stop offset=".5" stop-color="#f4782a"/>
      <stop offset=".7" stop-color="#ef4727"/>
      <stop offset=".8" stop-color="#ed2925"/>
      <stop offset=".9" stop-color="#ec1e25"/>
    </linearGradient>
    <linearGradient id="linear-gradient2" x1="628.6" y1="582.5" x2="525.4" y2="779" gradientTransform="translate(0 -168)" gradientUnits="userSpaceOnUse">
      <stop offset="0" stop-color="#fee531"/>
      <stop offset=".2" stop-color="#fcd930"/>
      <stop offset=".3" stop-color="#f8a82d"/>
      <stop offset=".4" stop-color="#f47d2a"/>
      <stop offset=".5" stop-color="#f15b28"/>
      <stop offset=".6" stop-color="#ef4027"/>
      <stop offset=".7" stop-color="#ed2d25"/>
      <stop offset=".9" stop-color="#ec2125"/>
      <stop offset="1" stop-color="#ec1e25"/>
    </linearGradient>
    <linearGradient id="linear-gradient3" x1="664.6" y1="622.5" x2="548.1" y2="807.3" gradientTransform="translate(0 -168)" gradientUnits="userSpaceOnUse">
      <stop offset="0" stop-color="#fee531"/>
      <stop offset="0" stop-color="#fbc92f"/>
      <stop offset=".4" stop-color="#f5832b"/>
      <stop offset=".8" stop-color="#ec1e25"/>
    </linearGradient>
  </defs>
  <g id="Layer_2" class="st4">
    <path class="st2" d="M286.4,651.1l.2-2.9.9-7.5h6l-4.5,19.1v6.3h-5.6v-6.2l-4.6-19.2h6.1l.9,7.5.2,2.9h.4Z"/>
    <path class="st2" d="M307,647.5v11.8c0,4.8-2.2,7.1-6.7,7.1s-6.6-2.3-6.6-7.1v-11.8c0-4.7,2.2-7,6.6-7s6.7,2.2,6.7,7ZM301.2,646.1c0-.7-.3-1.1-.9-1.1s-.9.4-.9,1.1v14.7c0,.7.3,1.1.9,1.1s.9-.4.9-1.1v-14.7Z"/>
    <path class="st2" d="M322,640.8v20.1c0,3.7-2.4,5.6-6.6,5.6s-6.4-1.8-6.4-5.6v-20.1h5.6v20.1c0,.7.3,1,.8,1s.8-.3.8-1v-20.1h5.8Z"/>
    <path class="st2" d="M337.7,666.2h-5.8l-.8-8.5h-1.2v8.5h-5.6v-25.4h7.2c3.9,0,5.9,2,5.9,5.6v4.9c0,1.6-.4,2.9-1.2,3.8l1.6,11h-.1ZM329.8,653.4h.5c.8,0,1.2-.6,1.2-1.8v-4.6c0-1-.4-1.5-1.2-1.5h-.5v7.9h0Z"/>
    <path class="st2" d="M351.8,640.8h5.8l-2.6,25.4h-8.7l-2.6-25.4h5.8l.9,15.3.3,4.2h.4l.2-4.2.7-15.3h-.2Z"/>
    <path class="st2" d="M358.8,640.8h5.6v25.4h-5.6v-25.4Z"/>
    <path class="st2" d="M379.4,649.3h-5.6v-3.4c0-.6-.3-1-.9-1s-.8.3-.8.9v3.2c0,.6.3,1,.9,1.3l2.6.6c1.4.4,2.4.9,3.1,1.7s1,1.9,1,3.5v4.2c0,1.9-.6,3.4-1.7,4.5-1.2,1.1-2.8,1.6-4.9,1.6-4.3,0-6.5-1.8-6.5-5.2v-4.5h5.6v4.2c0,.6.3,1,.9,1s.9-.4.9-.9v-4c0-.6-.4-1.1-1.1-1.3l-2.1-.5c-1.5-.3-2.6-.9-3.3-1.7s-1-2.1-1-3.8v-3.5c0-1.8.6-3.2,1.7-4.2s2.8-1.5,4.9-1.5,3.6.5,4.7,1.3c1.1.9,1.7,2.2,1.7,3.7v3.8h-.1Z"/>
    <path class="st2" d="M381.6,640.8h5.6v25.4h-5.6v-25.4Z"/>
    <path class="st2" d="M402.7,647.5v11.8c0,4.8-2.2,7.1-6.7,7.1s-6.6-2.3-6.6-7.1v-11.8c0-4.7,2.2-7,6.6-7s6.7,2.2,6.7,7ZM396.9,646.1c0-.7-.3-1.1-.9-1.1s-.9.4-.9,1.1v14.7c0,.7.3,1.1.9,1.1s.9-.4.9-1.1v-14.7Z"/>
    <path class="st2" d="M413,653.2l-.4-5.7v-6.8h5.4v25.4h-5.5l-2.6-13.3h-.3l.3,5.8v7.4h-5.4v-25.4h5.6l2.4,12.5h.5Z"/>
    <path class="st2" d="M425.9,660.2h5.3v6.4c0,1.7-1.1,2.5-3.2,2.5h-2.1v-1.7h1.3c.7,0,1-.3,1-.8v-.4h-2.4v-6h.1Z"/>
    <path class="st2" d="M452.1,647.5v11.8c0,4.8-2.2,7.1-6.7,7.1s-6.6-2.3-6.6-7.1v-11.8c0-4.7,2.2-7,6.6-7s6.7,2.2,6.7,7ZM446.4,646.1c0-.7-.3-1.1-.9-1.1s-.9.4-.9,1.1v14.7c0,.7.3,1.1.9,1.1s.9-.4.9-1.1v-14.7Z"/>
    <path class="st2" d="M467.1,640.8v20.1c0,3.7-2.4,5.6-6.6,5.6s-6.4-1.8-6.4-5.6v-20.1h5.6v20.1c0,.7.3,1,.8,1s.8-.3.8-1v-20.1h5.8Z"/>
    <path class="st2" d="M482.8,666.2h-5.8l-.8-8.5h-1.2v8.5h-5.6v-25.4h7.2c3.9,0,5.9,2,5.9,5.6v4.9c0,1.6-.4,2.9-1.2,3.8l1.6,11h-.1ZM475,653.4h.5c.8,0,1.2-.6,1.2-1.8v-4.6c0-1-.4-1.5-1.2-1.5h-.5v7.9h0Z"/>
    <path class="st2" d="M502.6,654v6.3c0,4-2.1,6.1-6.4,6.1s-6.6-2.3-6.6-7.1v-11.8c0-4.7,2.2-7,6.6-7s6.4,1.8,6.4,6.1v5.7h-5.6v-6.2c0-.7-.3-1.1-.8-1.1s-.8.4-.8,1.1v14.7c0,.7.3,1.1.9,1.1s.8-.4.8-1.1v-6.8h5.6-.1Z"/>
    <path class="st2" d="M517.7,647.5v11.8c0,4.8-2.2,7.1-6.7,7.1s-6.6-2.3-6.6-7.1v-11.8c0-4.7,2.2-7,6.6-7s6.7,2.2,6.7,7ZM512,646.1c0-.7-.3-1.1-.9-1.1s-.9.4-.9,1.1v14.7c0,.7.3,1.1.9,1.1s.9-.4.9-1.1v-14.7Z"/>
    <path class="st2" d="M526.6,640.8c3.9,0,6.2,2.1,6.2,6.2v13.1c0,2-.5,3.5-1.7,4.5-1.1,1-2.6,1.5-4.6,1.5h-6.8v-25.4h6.9,0ZM527.1,646.6c0-.8-.3-1.1-1-1.1h-.7v15.9h.7c.6,0,1-.4,1-1.1v-13.6h0Z"/>
    <path class="st2" d="M540.6,661.4h5v4.8h-10.6v-25.4h10.5v4.8h-4.9v5.4h4.6v4.5h-4.6v6h0Z"/>
    <path class="st2" d="M552.1,651.2h10.2v4.7h-10.2v-4.7Z"/>
    <path class="st2" d="M575,659.2v7h-5.6v-25.4h7.3c1.8,0,3.3.5,4.3,1.6s1.5,2.6,1.5,4.5v5.9c0,1.9-.5,3.4-1.6,4.6-1,1.2-2.5,1.8-4.2,1.8h-1.7ZM575.5,654.5c.8,0,1.2-.5,1.2-1.5v-6c0-1-.4-1.5-1.2-1.5h-.5v9h.5Z"/>
    <path class="st2" d="M589.8,661.4h5v4.8h-10.6v-25.4h10.5v4.8h-4.9v5.4h4.6v4.5h-4.6v6h0Z"/>
    <path class="st2" d="M610.1,666.2h-5.8l-.8-8.5h-1.2v8.5h-5.6v-25.4h7.2c3.9,0,5.9,2,5.9,5.6v4.9c0,1.6-.4,2.9-1.2,3.8l1.6,11h-.1ZM602.3,653.4h.5c.8,0,1.2-.6,1.2-1.8v-4.6c0-1-.4-1.5-1.2-1.5h-.5v7.9h0Z"/>
    <path class="st2" d="M622,645.5h-4.5v5.5h4.2v4.5h-4.2v10.7h-5.6v-25.4h10.2v4.7h-.1Z"/>
    <path class="st2" d="M629.1,661.4h5v4.8h-10.6v-25.4h10.5v4.8h-4.9v5.4h4.6v4.5h-4.6v6h0Z"/>
    <path class="st2" d="M648.8,654v6.3c0,4-2.1,6.1-6.4,6.1s-6.6-2.3-6.6-7.1v-11.8c0-4.7,2.2-7,6.6-7s6.4,1.8,6.4,6.1v5.7h-5.6v-6.2c0-.7-.3-1.1-.8-1.1s-.8.4-.8,1.1v14.7c0,.7.3,1.1.8,1.1s.8-.4.8-1.1v-6.8h5.6Z"/>
    <path class="st2" d="M662,640.8v4.7h-3.2v20.7h-5.6v-20.6h-3.2v-4.8h12Z"/>
    <path class="st2" d="M669.1,661.4h4.2v4.8h-9.8v-25.4h5.6v20.6h0Z"/>
    <path class="st2" d="M679.5,651.1l.2-2.9.8-7.5h6l-4.5,19.1v6.3h-5.6v-6.2l-4.6-19.2h6.2l.9,7.5.2,2.9h.4Z"/>
    <path class="st2" d="M698.7,661.4h5v4.8h-10.6v-25.4h10.5v4.8h-4.9v5.4h4.6v4.5h-4.6v6h0Z"/>
    <path class="st2" d="M711.6,657.4l-.2,1.5-1,7.2h-5.8l3-13.1-2.7-12.3h5.9l.9,6.8v1.5h.5v-1.5c0,0,1-6.8,1-6.8h5.7l-2.7,12.1,2.8,13.3h-5.8l-.9-7.2-.2-1.5h-.5Z"/>
    <path class="st2" d="M725.9,661.4h5v4.8h-10.6v-25.4h10.5v4.8h-4.9v5.4h4.6v4.5h-4.6v6h0Z"/>
    <path class="st2" d="M745.6,654v6.3c0,4-2.1,6.1-6.4,6.1s-6.6-2.3-6.6-7.1v-11.8c0-4.7,2.2-7,6.6-7s6.4,1.8,6.4,6.1v5.7h-5.6v-6.2c0-.7-.3-1.1-.8-1.1s-.8.4-.8,1.1v14.7c0,.7.3,1.1.8,1.1s.8-.4.8-1.1v-6.8h5.6Z"/>
    <path class="st2" d="M760.6,640.8v20.1c0,3.7-2.4,5.6-6.6,5.6s-6.4-1.8-6.4-5.6v-20.1h5.7v20.1c0,.7.3,1,.8,1s.8-.3.8-1v-20.1h5.7Z"/>
    <path class="st2" d="M774,640.8v4.7h-3.2v20.7h-5.6v-20.6h-3.2v-4.8h12Z"/>
    <path class="st2" d="M781.2,661.4h5v4.8h-10.6v-25.4h10.5v4.8h-4.9v5.4h4.6v4.5h-4.6v6h0Z"/>
    <path class="st2" d="M795,640.8c3.9,0,6.2,2.1,6.2,6.2v13.1c0,2-.5,3.5-1.7,4.5s-2.6,1.5-4.6,1.5h-6.8v-25.4h6.9,0ZM795.4,646.6c0-.8-.3-1.1-1-1.1h-.7v15.9h.7c.6,0,1-.4,1-1.1v-13.6h0Z"/>
  </g>
  <g>
    <g>
      <path class="st5 petal petal-1" d="M517.4,289.6s27.8,27.3-34.3,107.7l-37.2,55.6s-58.3,76.1,6.5,136.5c0,0,44.4,34,69.7,31.3,0,0-26.7-22.9-37.1-63.9-.2-.6-.4-1-.5-1.6-2.1-12.7-3.5-31.1,27.3-80.1l48-70.7s19.4-25.9-4.3-57.2l-38.1-57.6Z"/>
      <path class="st1 petal petal-2" d="M573,346.8s14,43.2-11.3,81.5c0,0-19.7,29.4-39.7,53.7,0,0-21.6,23.7-18.9,72.9,0,0,0-10.8,50.2-58.8,0,0,32.9-31.8,41-51.3,0,0,24.8-41-21.3-97.9h0Z"/>
      <path class="st0 petal petal-3" d="M606.5,392.6s11.3,44-16.5,80.6c0,0-21.5,28.1-43,51.1,0,0-23.1,22.3-23.5,71.5,0,0,.7-10.8,53.8-55.5,0,0,34.9-29.7,44.2-48.6,0,0,27.4-39.4-15-99.1h0Z"/>
      <path class="st3 petal petal-4" d="M639.4,438.6s7.8,44.7-22.8,79.1c0,0-23.7,26.3-46.9,47.5,0,0-24.7,20.4-29,69.4,0,0,1.5-10.7,58-51.1,0,0,37.1-26.8,47.9-44.9,0,0,30.4-37.1-7.2-100h0Z"/>
    </g>
    <g class="title-text">
      <g>
        <path d="M417.2,749.6v-74h9.3v65.7h32.3v8.3h-41.6Z"/>
        <path d="M512.8,749.6h-41.3v-74h41.3v8.2h-32v23.1h30.1v8.1h-30.1v26.4h32v8.2h0Z"/>
        <path d="M593.6,712.5c0,7.7-1.3,14.3-3.9,20.1-2.6,5.7-6.4,10.1-11.5,13.3-5.1,3.2-11.3,4.8-18.8,4.8s-14-1.6-19.1-4.8c-5.1-3.2-8.8-7.6-11.3-13.4-2.5-5.7-3.7-12.4-3.7-20.1s1.2-14.2,3.7-19.9c2.5-5.6,6.3-10.1,11.3-13.3,5.1-3.2,11.5-4.8,19.2-4.8s13.6,1.6,18.6,4.7c5.1,3.2,8.8,7.5,11.5,13.3,2.6,5.7,3.9,12.4,3.9,20.1h0ZM535.2,712.5c0,9.3,2,16.6,5.9,22s10.1,8,18.4,8,14.6-2.7,18.4-8c3.9-5.4,5.8-12.7,5.8-22s-1.9-16.6-5.8-21.9c-3.9-5.3-10-7.9-18.3-7.9s-14.5,2.7-18.5,7.9c-4,5.3-5.9,12.6-5.9,21.9h0Z"/>
        <path d="M630.3,675.6c9.2,0,16,1.7,20.4,5.2,4.4,3.5,6.6,8.8,6.6,15.8s-.7,7.2-2.2,9.8c-1.4,2.6-3.3,4.7-5.5,6.3s-4.6,2.8-7.1,3.7l20.3,33.1h-10.9l-17.9-30.6h-14.7v30.6h-9.3v-73.9h20.4,0ZM629.8,683.7h-10.6v27.4h11.1c6,0,10.4-1.2,13.1-3.6,2.8-2.4,4.1-5.9,4.1-10.5s-1.4-8.3-4.3-10.3c-2.9-2-7.4-3-13.4-3Z"/>
      </g>
      <g>
        <path d="M451.5,777.9c0-5.6,0-11.4.2-15h0c-1.6,6-4.7,15.6-8.5,27.5h-7c-3-10.5-6.4-21.3-8.1-27.5h0c.3,3.8.5,10.1.5,15.6v11.8h-7.1v-32.5h11.4c3.3,10.1,6.3,18.9,7.2,23.3h0c1.4-5.1,4.3-13.7,7.5-23.3h11.5v32.5h-7.6v-12.5h0Z"/>
        <path d="M512.1,776.6h-18.2v7.4h20.2l-.9,6.3h-27.2v-32.5h27v6.3h-19.1v6.2h18.2v6.3h0Z"/>
        <path d="M538.5,757.8h14.7c11,0,16.9,7.1,16.9,15.7s-7.7,16.8-17.1,16.8h-14.5v-32.5h0ZM546.4,784.2h5.6c6.4,0,9.8-3.6,9.8-10.5s-3.2-9.7-9.7-9.8h-5.7v20.3h0Z"/>
        <path d="M603,757.8v32.5h-7.9v-32.5h7.9Z"/>
        <path d="M636.7,783l-2.8,7.4h-8.1l13.1-32.5h10.1l13.8,32.5h-8.6l-3-7.4h-14.5ZM649,776.6c-3-7.5-4.5-11.3-5.3-13.7h0c-.7,2.4-2.4,7.4-4.9,13.7h10.2,0Z"/>
      </g>
    </g>
  </g>
</svg>